<?xml version="1.0" encoding="utf-8"?>
<!-- Generator: Adobe Illustrator 21.1.0, SVG Export Plug-In . SVG Version: 6.00 Build 0)  -->
<svg version="1.1" id="katman_1" xmlns="http://www.w3.org/2000/svg" xmlns:xlink="http://www.w3.org/1999/xlink" x="0px" y="0px"
	 width="50px" height="50px" viewBox="0 0 50 50" style="enable-background:new 0 0 50 50;" xml:space="preserve">
<style type="text/css">
	.st0{fill:#FFFFFF;}
	.st1{fill:#505B79;}
	.st2{opacity:0.36;fill:#505B79;}
</style>
<g>
	<polygon class="st0" points="22.3,11 16.1,14.2 12.1,19.2 11.5,23 15.8,23 38.8,23 37.3,18.7 34.7,14.6 29.9,12 23.9,10.8 	"/>
	<g>
		<path class="st1" d="M15.2,36.9L15.2,36.9c0,0.1,0,0.1,0,0.1L15.2,36.9C15.2,36.9,15.2,36.9,15.2,36.9z"/>
	</g>
	<path class="st2" d="M23.9,9.6L23.9,9.6c-0.4,0-0.7,0.1-1.1,0.1C23.2,9.6,23.6,9.6,23.9,9.6z"/>
	<path class="st1" d="M39.9,23c-0.7-7.3-6.8-13.1-14.2-13.4V8.6c0-0.4-0.3-0.8-0.8-0.8h-0.2c-0.4,0-0.8,0.3-0.8,0.8v0.9
		c-0.4,0-0.7,0.1-1.1,0.1c0,0,0,0,0,0c-0.3,0.1-0.7,0.1-1,0.2c-0.3,0.1-0.6,0.1-0.9,0.2c-4.5,1.3-8.2,4.6-9.8,9
		c-0.1,0.2-0.1,0.3-0.2,0.5c-0.1,0.2-0.1,0.3-0.2,0.5C10.4,21,10.2,22,10.1,23c0,0.2,0,0.3,0,0.5c0,0,0,0,0,0
		c0.1,0.3,0.3,0.6,0.6,0.8c0.4,0.2,0.8,0.2,1.2,0c0,0,0.1-0.1,0.1-0.1c1.5-1.1,3.7-1,5.1,0.2c0.5,0.4,1.1,0.4,1.6,0
		c1.6-1.3,4-1.3,5.5,0.1c0,0,0.1,0.1,0.1,0.1v11.8c0,0.5-0.1,1-0.2,1.4c-0.2,0.6-0.5,1.1-0.9,1.5c-0.5,0.5-1.1,0.8-1.7,1
		c-0.2,0.1-0.5,0.1-0.8,0.1c-1.9,0-3.4-1.4-3.6-3.3c0,0,0,0,0,0c0-0.1,0-0.1,0-0.2c-0.1-0.4-0.5-0.7-0.9-0.7c-0.1,0-0.2,0-0.3,0.1
		c0,0,0,0,0,0c-0.3,0.1-0.5,0.4-0.5,0.7c0,0,0,0,0,0.1V37c0,0,0,0,0,0v0c0,3.2,3.2,5.7,6.7,5c1.6-0.3,2.9-1.4,3.6-2.7
		c0.3-0.5,0.5-1,0.6-1.6c0.1-0.3,0.1-0.6,0.1-0.9V24.2c1.5-1.1,3.7-1.1,5.2,0.2c0.5,0.4,1.1,0.4,1.6,0c1.4-1.2,3.6-1.3,5.1-0.2
		c0.1,0,0.1,0.1,0.2,0.1c0.3,0.2,0.8,0.1,1.1-0.1c0.4-0.2,0.6-0.6,0.6-1.1C39.9,23.1,39.9,23,39.9,23z M31.8,22.8
		c-0.9-0.7-2.1-1.1-3.4-1.1c-1,0-2,0.3-2.8,0.8c-0.2,0.1-0.4,0.3-0.6,0.5c-0.2-0.2-0.4-0.3-0.7-0.5c-0.8-0.5-1.8-0.8-2.8-0.8
		c-1.2,0-2.4,0.4-3.4,1.1c-1.8-1.4-4.3-1.5-6.2-0.4c0.6-4.2,3.4-7.7,7-9.6c1.2-0.6,2.6-1,4-1.3c0.3-0.1,0.7-0.1,1-0.1
		c0.3,0,0.7,0,1,0c0.2,0,0.5,0,0.7,0c0.2,0,0.5,0,0.7,0.1c0.2,0,0.4,0.1,0.7,0.1c0.3,0,0.6,0.1,0.9,0.2c0.7,0.1,1.3,0.3,1.9,0.6
		c0.3,0.1,0.6,0.2,0.8,0.4c0.2,0.1,0.4,0.2,0.7,0.3c0.3,0.2,0.6,0.4,0.9,0.6c0.2,0.1,0.3,0.2,0.5,0.4c0.1,0.1,0.3,0.2,0.4,0.3
		c0,0,0.1,0,0.1,0.1c0.2,0.1,0.4,0.3,0.6,0.5c0.1,0.1,0.2,0.1,0.2,0.2c0.2,0.2,0.3,0.3,0.5,0.5c0,0,0.1,0.1,0.1,0.1
		c0.2,0.2,0.4,0.5,0.6,0.7c0.2,0.2,0.3,0.4,0.4,0.6c0.1,0.1,0.2,0.3,0.3,0.4c0.3,0.5,0.6,1,0.9,1.6c0.1,0.2,0.2,0.4,0.2,0.6
		c0.3,0.7,0.5,1.5,0.7,2.2c0,0.2,0.1,0.4,0.1,0.6C36.1,21.2,33.6,21.4,31.8,22.8z"/>
</g>
</svg>
