<?xml version="1.0" encoding="utf-8"?>
<!-- Generator: Adobe Illustrator 21.1.0, SVG Export Plug-In . SVG Version: 6.00 Build 0)  -->
<svg version="1.1" id="katman_1" xmlns="http://www.w3.org/2000/svg" xmlns:xlink="http://www.w3.org/1999/xlink" x="0px" y="0px"
	 width="50px" height="50px" viewBox="0 0 50 50" style="enable-background:new 0 0 50 50;" xml:space="preserve">
<style type="text/css">
	.st0{fill:#FFFFFF;}
	.st1{opacity:0.17;fill:#505B79;enable-background:new    ;}
	.st2{fill:#505B79;}
	.st3{fill:#EA5A71;}
	.st4{fill:#66CD54;}
</style>
<g>
	<path class="st0" d="M22.4,14.1l-3.3-0.6l-3.2,0.9l-1.3,1.6l-0.9,1.2L12,18l-1.4,1.4L9.6,21l-0.4,1.7l1,2.4l1.3,1.2l2.5,0.9h4.7
		h18.7l2.3-1.5l1.1-1.9v-2.1L40,19.4l-1.4-1.6l-0.7-1.3l-0.8-2.1l-1.1-2l-1.4-1.6c0,0-3-1.2-3.1-1c-0.1,0.2-2.8,0.2-2.8,0.2L26,10.6
		l-1.7,1.7L22.4,14.1z"/>
	<g>
		<path class="st1" d="M16,24.1c-0.7-0.3-1.3-0.6-1.9-1c-1.8-0.7-2.8-1.6-2.7-2.8c0,0-2.2,3.7,3.1,5.2h6.3c-0.5-0.1-0.9-0.2-1.3-0.4
			C18.3,24.9,17.1,24.5,16,24.1z"/>
		<polygon class="st2" points="17.5,26.1 19.2,26.1 19.2,26.2 18.8,27 18.5,27.7 17.5,27.7 		"/>
		<path class="st2" d="M41.3,23c-0.4,2.4-2.2,4.1-4.5,4.6c-0.4,0.1-0.8,0.1-1.3,0.1h-2.9c-0.1-0.8-0.3-1.3-0.5-1.6h3.3
			c0.4,0,0.7,0,0.9-0.1c1.7-0.3,2.9-1.6,3.2-3.3c0.3-1.6-0.5-3.2-1.9-4.1c-0.4-0.2-0.7-0.7-0.8-1.2c-0.5-3.7-3.7-6.5-7.5-6.5
			c-0.8,0-1.5,0.1-2.3,0.3c-1.8,0.6-3.1,1.6-4.2,3.3l-0.1,0.2c0,0,0,0,0,0.1c-0.1,0.1-0.2,0.2-0.4,0.2c0,0-0.1,0-0.1,0
			c0,0,0,0-0.1,0l-0.7-0.3c-0.8-0.3-1.6-0.5-2.3-0.5c-2.1,0-4,1.2-5,3.1c-0.2,0.4-0.6,0.7-1,0.8c-2,0.6-3.3,2.5-3,4.5
			c0.3,2.1,1.9,3.5,4.2,3.5l3.1,0h3.6l-0.7,1.6h-5.9c-3,0-5.4-2-5.8-4.9c-0.4-2.8,1.4-5.5,4.1-6.2c1.4-2.5,3.8-4,6.5-4
			c0.9,0,1.8,0.2,2.8,0.5c1.2-1.7,2.8-2.8,4.7-3.4c0.9-0.3,1.8-0.4,2.7-0.4c2.3,0,4.4,0.9,6,2.3c1.6,1.4,2.7,3.4,3,5.6
			c0,0,0,0.1,0.1,0.1C40.6,18.4,41.7,20.8,41.3,23z"/>
	</g>
	<path class="st3" d="M26.1,30.2l-6.3,10.5c0,0,0,0,0,0h0c0,0-0.1,0.1-0.1,0c0,0-0.1-0.1-0.1-0.1l2.3-8.1L19.2,32l1.5-3.4l0.1-0.1
		l1.1-2.4H23v0h2l-0.2,0.4l-0.1,0.3v0l-0.4,0.9l-1,2.2L26.1,30.2z"/>
	<g>
		<g>
			<g>
				<g>
					<path class="st4" d="M25.3,23.1c-0.6,1-1.6,1.6-2.6,1.6s-2.1-0.6-2.6-1.6c-0.3-0.7-0.5-1.3-0.4-2l0,0c0.1-1.2,1.3-3.1,2.2-4.4
						c0.6-0.9,0.8-1.1,0.8-1.2l0,0l0,0l0,0l0,0l0,0h0.1h0.1l0,0l0,0l0,0l0,0l0,0c0,0,0.2,0.2,0.8,1.2c0.8,1.2,2,3.1,2.2,4.4l0,0
						C25.7,21.8,25.6,22.6,25.3,23.1z"/>
					<path class="st4" d="M22.4,14.7L22.4,14.7L22.4,14.7z"/>
					<path class="st4" d="M22.5,14.7L22.5,14.7L22.5,14.7z"/>
				</g>
			</g>
		</g>
		<g>
			<g>
				<g>
					<path class="st4" d="M36.1,22.2c-0.6,1-1.6,1.6-2.6,1.6s-2.1-0.6-2.6-1.6c-0.3-0.7-0.5-1.3-0.4-2l0,0c0.1-1.2,1.3-3.1,2.2-4.4
						c0.6-0.9,0.8-1.1,0.8-1.2l0,0l0,0l0,0l0,0l0,0h0.1h0.1l0,0l0,0l0,0l0,0l0,0c0,0,0.2,0.2,0.8,1.2c0.8,1.2,2,3.1,2.2,4.4l0,0
						C36.5,20.9,36.5,21.6,36.1,22.2z"/>
					<path class="st4" d="M33.2,13.8L33.2,13.8L33.2,13.8z"/>
					<path class="st4" d="M33.4,13.8L33.4,13.8L33.4,13.8z"/>
				</g>
			</g>
		</g>
		<g>
			<g>
				<g>
					<path class="st4" d="M31.2,29.5c-0.6,1-1.6,1.6-2.6,1.6c-1.1,0-2.1-0.6-2.6-1.6c-0.3-0.7-0.5-1.3-0.4-2l0,0
						c0.1-1.2,1.3-3.1,2.2-4.4c0.6-0.9,0.8-1.1,0.8-1.2l0,0l0,0l0,0l0,0l0,0h0.1h0.1l0,0l0,0l0,0l0,0l0,0c0,0,0.2,0.2,0.8,1.2
						c0.8,1.2,2,3.1,2.2,4.4l0,0C31.6,28.2,31.5,29,31.2,29.5z"/>
					<path class="st4" d="M28.3,21.1L28.3,21.1L28.3,21.1z"/>
					<path class="st4" d="M28.5,21.1L28.5,21.1L28.5,21.1z"/>
				</g>
			</g>
		</g>
		<g>
			<g>
				<g>
					<path class="st4" d="M35.4,37.8c-0.6,1-1.6,1.6-2.6,1.6s-2.1-0.6-2.6-1.6c-0.3-0.7-0.5-1.3-0.4-2l0,0c0.1-1.2,1.3-3.1,2.2-4.4
						c0.6-0.9,0.8-1.1,0.8-1.2l0,0l0,0l0,0l0,0l0,0h0.1h0.1l0,0l0,0l0,0l0,0l0,0c0,0,0.2,0.2,0.8,1.2c0.8,1.2,2,3.1,2.2,4.4l0,0
						C35.8,36.5,35.8,37.2,35.4,37.8z"/>
					<path class="st4" d="M32.5,29.3L32.5,29.3L32.5,29.3z"/>
					<path class="st4" d="M32.7,29.3L32.7,29.3L32.7,29.3z"/>
				</g>
			</g>
		</g>
	</g>
</g>
</svg>
