<?xml version="1.0" encoding="utf-8"?>
<!-- Generator: Adobe Illustrator 21.0.0, SVG Export Plug-In . SVG Version: 6.00 Build 0)  -->
<svg version="1.1" id="katman_1" xmlns="http://www.w3.org/2000/svg" xmlns:xlink="http://www.w3.org/1999/xlink" x="0px" y="0px"
	 width="50px" height="50px" viewBox="0 0 50 50" style="enable-background:new 0 0 50 50;" xml:space="preserve">
<style type="text/css">
	.st0{fill:#FFFFFF;}
	.st1{fill:#505B78;}
	.st2{opacity:0.17;fill:#505B78;enable-background:new    ;}
	.st3{fill:#52C0D6;}
	.st4{fill:#66CD54;}
</style>
<g>
	<path class="st0" d="M22.5,17.8l-3.2-0.5l-3.1,0.9l-1.3,1.6L14,20.9l-1.6,0.6L11,22.9l-0.9,1.6l-0.4,1.7l0.9,2.3l1.3,1.2l2.4,0.9
		h4.5h18l2.2-1.4l1.1-1.8v-2L39.5,23l-1.3-1.5l-0.7-1.3l-0.8-2.1l-1-2l-1.4-1.5c0,0-2.9-1.2-3-1c-0.1,0.1-2.7,0.2-2.7,0.2L26,14.5
		l-1.6,1.6L22.5,17.8z"/>
	<g>
		<g>
			<g>
				<g>
					<path class="st1" d="M38.7,20.9C38.7,20.9,38.6,20.8,38.7,20.9c-0.4-2.3-1.5-4.3-3.1-5.7c-0.3-0.3-0.7-0.5-1-0.8
						c-0.2-0.1-0.3-0.2-0.5-0.3c-0.4-0.2-0.7-0.4-1.1-0.5l0,0c-1.1-0.4-2.2-0.7-3.4-0.7c-0.9,0-1.8,0.1-2.7,0.4
						c-1.9,0.6-3.5,1.8-4.8,3.4c-0.9-0.3-1.8-0.5-2.8-0.5c-2.7,0-5.1,1.5-6.5,4C10,21,8.2,23.7,8.6,26.5c0.4,3,2.7,4.9,5.8,4.9h2.4
						c-0.3-0.5-0.5-1-0.6-1.6h-1.8c-2.3,0-3.9-1.4-4.2-3.6c-0.3-2,1-3.9,3-4.5c0.4-0.1,0.8-0.4,1-0.8c1-2,2.9-3.2,5-3.2
						c0.8,0,1.6,0.2,2.4,0.5l0.7,0.3l0,0h0.1c0.2,0,0.3-0.1,0.4-0.2c0,0,0,0,0-0.1l0.1-0.2c1.1-1.7,2.5-2.8,4.3-3.3
						c0.7-0.2,1.5-0.4,2.3-0.4c3.8,0,7,2.8,7.5,6.5c0.1,0.5,0.5,1,0.8,1.2c1.4,0.9,2.2,2.6,1.9,4.2c-0.3,1.8-1.5,3-3.2,3.4
						c-0.2,0-0.5,0.1-0.9,0.1c-0.2,0.6-0.5,1.1-1,1.6h0.9c0.5,0,0.9,0,1.3-0.1c1.8-0.4,3.2-1.5,4-3c0.2-0.3,0.3-0.7,0.4-1.1
						c0-0.2,0.1-0.3,0.1-0.5C41.8,24.5,40.7,22.2,38.7,20.9z"/>
				</g>
			</g>
		</g>
	</g>
	<path class="st2" d="M10.7,24.6c0,0-0.8,5.6,5.6,4.7C16.3,29.3,12.6,28.8,10.7,24.6z"/>
	<path class="st3" d="M18.4,31.9L18.4,31.9L18.4,31.9z"/>
</g>
<g>
	<g>
		<g>
			<path class="st4" d="M24.5,30.9c-0.7,1.2-1.9,1.9-3.2,1.9c-1.3,0-2.5-0.7-3.2-1.9c-0.4-0.8-0.6-1.6-0.5-2.4l0,0
				c0.1-1.5,1.6-3.8,2.6-5.3c0.7-1.1,1-1.3,1-1.4l0,0l0,0l0,0l0,0l0,0h0.1h0.1l0,0l0,0l0,0l0,0l0,0c0,0,0.3,0.2,1,1.4
				c1,1.5,2.4,3.8,2.6,5.3l0,0C25,29.3,24.9,30.2,24.5,30.9z"/>
			<path class="st4" d="M21,20.7L21,20.7L21,20.7z"/>
			<path class="st4" d="M21.2,20.7L21.2,20.7L21.2,20.7z"/>
		</g>
	</g>
</g>
<g>
	<g>
		<g>
			<path class="st4" d="M34.1,28.9c-0.7,1.2-1.9,1.9-3.2,1.9s-2.5-0.7-3.2-1.9c-0.4-0.8-0.6-1.6-0.5-2.4l0,0
				c0.1-1.5,1.6-3.8,2.6-5.3c0.7-1.1,1-1.3,1-1.4l0,0l0,0l0,0l0,0l0,0h0.1H31l0,0l0,0l0,0l0,0l0,0c0,0,0.3,0.2,1,1.4
				c1,1.5,2.4,3.8,2.6,5.3l0,0C34.6,27.3,34.5,28.2,34.1,28.9z"/>
			<path class="st4" d="M30.6,18.7L30.6,18.7L30.6,18.7z"/>
			<path class="st4" d="M30.8,18.7L30.8,18.7L30.8,18.7z"/>
		</g>
	</g>
</g>
<g>
	<g>
		<g>
			<path class="st4" d="M30.3,40c-0.7,1.2-1.9,1.9-3.2,1.9c-1.3,0-2.5-0.7-3.2-1.9c-0.4-0.8-0.6-1.6-0.5-2.4l0,0
				c0.1-1.5,1.6-3.8,2.6-5.3c0.7-1.1,1-1.3,1-1.4l0,0l0,0l0,0l0,0l0,0h0.1h0.1l0,0l0,0l0,0l0,0l0,0c0,0,0.3,0.2,1,1.4
				c1,1.5,2.4,3.8,2.6,5.3l0,0C30.8,38.4,30.7,39.3,30.3,40z"/>
			<path class="st4" d="M26.8,29.8L26.8,29.8L26.8,29.8z"/>
			<path class="st4" d="M27,29.8L27,29.8L27,29.8z"/>
		</g>
	</g>
</g>
<g>
	<g>
		<g>
			<path class="st4" d="M39.6,42.1c-0.7,1.2-1.9,1.9-3.2,1.9s-2.5-0.7-3.2-1.9c-0.4-0.8-0.6-1.6-0.5-2.4l0,0
				c0.1-1.5,1.6-3.8,2.6-5.3c0.7-1.1,1-1.3,1-1.4l0,0l0,0l0,0l0,0l0,0h0.1h0.1l0,0l0,0l0,0l0,0l0,0c0,0,0.3,0.2,1,1.4
				c1,1.5,2.4,3.8,2.6,5.3l0,0C40.1,40.5,40,41.4,39.6,42.1z"/>
			<path class="st4" d="M36.1,31.9L36.1,31.9L36.1,31.9z"/>
			<path class="st4" d="M36.3,31.9L36.3,31.9L36.3,31.9z"/>
		</g>
	</g>
</g>
<g>
	<g>
		<g>
			<path class="st4" d="M21.2,42.1C20.5,43.3,19.3,44,18,44s-2.5-0.7-3.2-1.9c-0.4-0.8-0.6-1.6-0.5-2.4l0,0c0.1-1.5,1.6-3.8,2.6-5.3
				c0.7-1.1,1-1.3,1-1.4l0,0l0,0l0,0l0,0l0,0H18h0.1l0,0l0,0l0,0l0,0l0,0c0,0,0.3,0.2,1,1.4c1,1.5,2.4,3.8,2.6,5.3l0,0
				C21.7,40.5,21.6,41.4,21.2,42.1z"/>
			<path class="st4" d="M17.7,31.9L17.7,31.9L17.7,31.9z"/>
			<path class="st4" d="M17.9,31.9L17.9,31.9L17.9,31.9z"/>
		</g>
	</g>
</g>
</svg>
