<?xml version="1.0" encoding="utf-8"?>
<!-- Generator: Adobe Illustrator 16.0.0, SVG Export Plug-In . SVG Version: 6.00 Build 0)  -->
<!DOCTYPE svg PUBLIC "-//W3C//DTD SVG 1.1//EN" "http://www.w3.org/Graphics/SVG/1.1/DTD/svg11.dtd">
<svg version="1.1" id="katman_1" xmlns="http://www.w3.org/2000/svg" xmlns:xlink="http://www.w3.org/1999/xlink" x="0px" y="0px"
	 width="27.786px" height="27.942px" viewBox="0 0 27.786 27.942" enable-background="new 0 0 27.786 27.942" xml:space="preserve">
<path d="M1.451,0.321v0.125C1.295,0.405,1.133,0.384,0.969,0.384c-0.163,0-0.324,0.021-0.481,0.06V0.321H1.451z"/>
<path fill="#1A1A26" d="M1.448,0.438v27.13h-0.96V0.438c0.16-0.03,0.32-0.05,0.48-0.05C1.138,0.387,1.298,0.397,1.448,0.438z"/>
<g>
	<g>
		<path fill="#FFFFFF" d="M13.855,2.69l-0.318,4.256l-0.003,0.002l-0.113,1.546L12.934,8.38c0.062-0.232,0.106-0.472,0.118-0.724
			c0.008-0.181,0.003-0.363,0.003-0.544c0-0.231,0.007-0.463,0.051-0.692c0.007-0.253,0.015-0.504,0.023-0.755l-0.084-0.026
			l-0.753-0.222C12.242,5.44,12.198,5.44,12.169,5.38c-0.022-0.047-0.036-0.132-0.034-0.274c0-0.118-0.102-0.111-0.169-0.109
			C11.836,5,11.703,5,11.574,5.025c-0.118,0.02-0.306,0.095-0.342,0.061c-0.272-0.255-0.58-0.214-0.877-0.251
			C9.813,4.77,9.318,5.097,8.798,5.204C8.601,5.246,8.402,5.283,8.279,4.997c-0.016,0.001-0.034,0-0.049-0.001
			C8.239,5.1,8.245,5.203,8.256,5.309c0.007,0.095,0.014,0.187,0.016,0.281c0.014,0.268,0.02,0.538,0.015,0.807
			C8.286,6.441,8.284,6.486,8.284,6.531C8.28,6.586,8.279,6.642,8.276,6.697C8.272,6.765,8.267,6.834,8.262,6.903
			C8.26,6.936,8.258,6.97,8.255,7.003C8.245,7.092,8.238,7.183,8.228,7.271H8.227L7.534,7.107l0.542-3.829V3.277l0.022-0.151
			l0.286-2.011c0,0,0.043,0.011,0.125,0.032c0.001,0,0.001,0.002,0.003,0.002c0.63,0.162,3.432,0.896,5.029,1.432
			c0.065,0.021,0.126,0.043,0.187,0.063c0.017,0.005,0.033,0.012,0.049,0.017C13.802,2.668,13.827,2.679,13.855,2.69z"/>
		<path fill="#FFFFFF" d="M17.819,4.11c0,0,4.916,1.81,5.924,2.191l-0.426,3.91l-1.452-0.16l-3.184-1.114l-2.52-1.008l0.181-2.361
			L17.819,4.11z"/>
		<path fill="#E52921" d="M8.524,1.637C8.596,1.31,8.618,1.2,8.51,1.148c-0.001,0-0.001-0.002-0.003-0.002
			c-0.001,0-0.002,0-0.003-0.001C8.472,1.132,8.434,1.123,8.385,1.115c-0.001,0-0.001-0.001-0.002-0.001
			c-0.039-0.006-0.087-0.013-0.14-0.02c-0.544-0.07-1.089-0.138-1.633-0.21C5.581,0.751,4.552,0.615,3.521,0.48
			c-0.008,0-0.017-0.001-0.025-0.004C3.475,0.475,3.455,0.472,3.435,0.47c0,0.001,0,0.003-0.001,0.004
			C3.411,0.697,3.282,0.642,3.186,0.617C3.171,0.613,3.155,0.612,3.141,0.609c-0.019,0.055-0.03,0.131-0.034,0.237
			c-0.01,0.365-0.018,0.732-0.023,1.098C3.102,1.952,3.107,1.979,3.082,2.05C3.081,2.125,3.081,2.199,3.079,2.274
			C3.063,3.279,3.05,4.286,3.061,5.288c0.005-0.007,0.011-0.015,0.015-0.023C3.071,5.287,3.066,5.307,3.062,5.327
			C3.066,5.769,3.075,6.21,3.091,6.651c0.057-0.008,0.109,0.014,0.146,0.1c0.045,0.105,0.045,0.237-0.004,0.353
			c-0.02,0.049-0.051,0.095-0.09,0.135c-0.085,0.087-0.159,0.193-0.238,0.29c0,0.013-0.003,0.031,0.001,0.039
			C3.026,7.719,3.052,7.825,3.01,8.02c0.041,0.112,0.12,0.069,0.185,0.073c0.006,0,0.013,0.001,0.017,0.001
			c0.027,0.001,0.055,0.003,0.082,0.003c0.268,0.007,0.543-0.03,0.789,0.069c0.864,0.349,1.741,0.438,2.633,0.465
			c0.415,0.013,0.837-0.054,1.247,0.111c0.111-0.157,0.138-0.342,0.153-0.533c0.003-0.043,0.006-0.085,0.008-0.128
			c0.002-0.02,0.003-0.042,0.003-0.063c0.001-0.02,0.004-0.042,0.005-0.063c0.007-0.063,0.012-0.126,0.023-0.188
			C8.162,7.726,8.17,7.685,8.176,7.643C8.183,7.602,8.19,7.561,8.196,7.52c0.011-0.083,0.022-0.166,0.032-0.248
			c0.01-0.088,0.018-0.178,0.027-0.268c0.004-0.033,0.006-0.066,0.008-0.1c0.006-0.069,0.01-0.138,0.014-0.207
			c0.003-0.055,0.004-0.11,0.008-0.166c0-0.045,0.002-0.089,0.003-0.134c0.003-0.271-0.002-0.541-0.018-0.81
			c-0.004-0.094-0.01-0.186-0.016-0.281c-0.01-0.104-0.017-0.208-0.026-0.313c-0.01-0.264-0.014-0.53-0.026-0.792
			C8.187,3.927,8.246,3.606,8.125,3.388C8.101,3.346,8.086,3.31,8.077,3.277l0,0C8.062,3.212,8.073,3.164,8.099,3.126
			c0.083-0.12,0.303-0.147,0.217-0.351C8.314,2.77,8.324,2.752,8.324,2.739C8.344,2.355,8.442,1.999,8.524,1.637z"/>
		<path fill="#E52921" d="M18.083,5.872c0.003,0.053,0.003,0.107,0.003,0.161v0.232c-0.045,0.565-0.07,1.131-0.136,1.689
			c-0.008,0.077-0.017,0.153-0.028,0.229c-0.006,0.052-0.011,0.104-0.02,0.156c-0.005,0.041-0.01,0.082-0.015,0.122l-0.015,0.084
			c-0.003,0.02-0.008,0.042-0.01,0.064c-0.002,0.017-0.006,0.035-0.008,0.052c-0.008,0.039-0.015,0.078-0.02,0.116
			c-0.006,0.03-0.013,0.059-0.018,0.088c-0.006,0.037-0.014,0.073-0.021,0.111c-0.008,0.03-0.016,0.059-0.021,0.088
			c-0.002,0.009-0.005,0.016-0.006,0.025c-0.011,0.036-0.019,0.071-0.029,0.107C17.73,9.22,17.724,9.24,17.719,9.262
			c-0.009,0.028-0.018,0.055-0.026,0.083c-0.006,0.018-0.012,0.036-0.018,0.055c-0.006,0.015-0.013,0.029-0.016,0.045
			c-0.008,0.023-0.018,0.048-0.027,0.07c-0.012,0.033-0.027,0.066-0.042,0.099c0,0,0,0.002,0,0.004
			c-0.008,0.015-0.015,0.031-0.023,0.048c-0.01,0.017-0.017,0.035-0.025,0.052c-0.008,0.017-0.018,0.033-0.026,0.05
			c-0.854-0.012-1.694-0.219-2.54-0.337c-0.635-0.088-1.271-0.202-1.907-0.299c-0.118-0.017-0.245,0.006-0.321-0.151
			c0.069-0.197,0.137-0.396,0.19-0.6c0.063-0.232,0.106-0.472,0.118-0.724c0.008-0.181,0.003-0.363,0.003-0.544
			c0-0.231,0.006-0.463,0.052-0.692c0.007-0.253,0.015-0.504,0.022-0.755c0.015-0.574,0.014-1.146-0.071-1.724
			c-0.063-0.423,0.149-0.862,0.287-1.265c0.035-0.103,0.111-0.115,0.193-0.097c0.064,0.013,0.131,0.045,0.186,0.063
			c0.017,0.005,0.033,0.012,0.05,0.017c0.027,0.009,0.051,0.019,0.079,0.029c1.188,0.419,2.37,0.85,3.556,1.277
			c0.018,0.007,0.036,0.022,0.054,0.028c0.145,0.051,0.261,0.085,0.354,0.117c0.002,0,0.003,0,0.004,0.001
			c0.005,0,0.008,0.002,0.012,0.003c0.045,0.015,0.084,0.028,0.118,0.045c0.001,0,0.002,0.001,0.004,0.001
			c0.239,0.107,0.176,0.255,0.017,1.076C17.917,5.521,18.103,5.647,18.083,5.872z"/>
		<path fill="#E52921" d="M27.498,8.321c-0.089,0.57,0.001,1.151-0.095,1.714c-0.016,0.101-0.009,0.213-0.082,0.285
			c-0.057,0.209-0.104,0.424-0.175,0.625c-0.161,0.458-0.373,0.632-0.768,0.57c-0.785-0.123-1.567-0.275-2.351-0.415
			c-0.584-0.104-1.169-0.206-1.754-0.308c-0.029-0.022-0.059-0.044-0.086-0.066v-0.001c0.328-0.54,0.47-1.164,0.481-1.846
			c0.074-0.571,0.111-1.136,0.017-1.719c-0.059-0.364,0.119-0.736,0.084-1.13c-0.011-0.12,0.128-0.048,0.194-0.022
			c0.864,0.325,1.73,0.651,2.592,0.984c0.49,0.189,0.976,0.39,1.462,0.587c0.095,0.039,0.19,0.078,0.249,0.202
			C27.444,7.888,27.53,8.109,27.498,8.321z"/>
		<path fill="#EDC4D6" d="M8.277,4.994c0,0,0.001,0.001,0.001,0.003c0.001,0,0.001,0,0.002,0L8.277,4.994z M8.229,7.27
			C8.219,7.354,8.209,7.437,8.196,7.518c-0.007,0.041-0.014,0.083-0.02,0.124c-0.005,0.042-0.014,0.083-0.02,0.124
			C8.146,7.827,8.139,7.89,8.132,7.953C8.131,7.975,8.129,7.997,8.127,8.017c0,0.02-0.001,0.042-0.003,0.063
			C8.122,8.123,8.118,8.165,8.115,8.208C8.101,8.398,8.073,8.583,7.963,8.74v0c0.513,0.299,1.059,0.292,1.59,0.201
			c0.63-0.108,1.247-0.096,1.878,0.002c0.429,0.066,0.871,0.229,1.31,0.035c0.071-0.197,0.139-0.396,0.191-0.6L8.229,7.27z
			 M12.763,5.428c-0.01-0.118,0.152-0.009,0.129-0.158c-0.131-0.117-0.25-0.072-0.391-0.004c-0.057,0.027-0.137,0.118-0.21,0.151
			l0.754,0.222C12.919,5.51,12.781,5.621,12.763,5.428z"/>
		<path fill="#EDC4D6" d="M13.105,6.42c-0.044,0.229-0.051,0.46-0.051,0.692c0,0.181,0.005,0.363-0.003,0.544
			c-0.012,0.252-0.056,0.491-0.118,0.724L8.228,7.27c0.01-0.088,0.018-0.178,0.027-0.268c0.003-0.033,0.005-0.067,0.007-0.101
			c0.006-0.069,0.01-0.138,0.014-0.206C8.28,6.64,8.281,6.585,8.284,6.529C8.285,6.484,8.287,6.44,8.288,6.395
			c0.004-0.268-0.002-0.538-0.017-0.807c-0.004-0.094-0.01-0.186-0.016-0.281c-0.01-0.104-0.017-0.208-0.026-0.313
			c0.015,0.002,0.034,0.003,0.05,0.002C8.402,5.281,8.6,5.244,8.797,5.203c0.52-0.107,1.015-0.434,1.558-0.369
			c0.297,0.036,0.605-0.004,0.878,0.251c0.036,0.035,0.224-0.041,0.341-0.062C11.703,5,11.835,5,11.964,4.997
			c0.069-0.002,0.17-0.009,0.169,0.109c-0.002,0.142,0.011,0.227,0.034,0.274c0.03,0.061,0.073,0.061,0.123,0.037l0.754,0.222
			l0.084,0.026C13.122,5.916,13.113,6.167,13.105,6.42z"/>
		<path fill="#EDC4D6" d="M22.325,8.896c-0.243-0.187-0.523-0.212-0.806-0.247c-0.556-0.067-1.05-0.388-1.365-0.985
			c-0.189-0.36-0.414-0.542-0.686-0.733c-0.295-0.209-0.693-0.1-0.91-0.528c-0.014-0.023-0.073-0.038-0.082-0.023
			c-0.183,0.265-0.263-0.071-0.394-0.117c-0.043,0.564-0.067,1.132-0.133,1.69c-0.009,0.077-0.018,0.154-0.028,0.23
			c-0.006,0.051-0.012,0.103-0.02,0.155c-0.005,0.04-0.011,0.082-0.016,0.122c-0.004,0.028-0.009,0.055-0.013,0.082
			c-0.005,0.039-0.012,0.079-0.017,0.118c-0.008,0.038-0.015,0.078-0.021,0.116c-0.005,0.029-0.009,0.059-0.017,0.087
			c-0.007,0.037-0.014,0.073-0.022,0.111c-0.007,0.029-0.015,0.059-0.021,0.088c-0.002,0.008-0.003,0.016-0.006,0.025
			c-0.011,0.035-0.019,0.072-0.029,0.107c-0.011,0.031-0.018,0.061-0.027,0.093c-0.014,0.036-0.024,0.073-0.038,0.11
			c-0.006,0.015-0.012,0.029-0.017,0.045c-0.008,0.023-0.017,0.048-0.026,0.07c-0.012,0.033-0.027,0.066-0.042,0.099
			c-0.001,0-0.001,0.003-0.001,0.004c-0.008,0.016-0.015,0.032-0.023,0.048c-0.007,0.017-0.017,0.035-0.024,0.052
			c-0.009,0.017-0.019,0.033-0.027,0.05h0c0.162,0.072,0.32,0.139,0.492,0.169c0.752,0.131,1.503,0.298,2.257,0.426
			c0.644,0.111,1.271,0.361,1.927,0.362c0.329-0.54,0.47-1.164,0.482-1.846C22.554,8.87,22.462,9,22.325,8.896z M22.403,9.612
			c-0.048-0.173,0.011-0.311,0.093-0.435C22.524,9.351,22.469,9.482,22.403,9.612z"/>
	</g>
	<path fill="#E52921" d="M3.523,0.478c-0.008,0-0.018,0-0.027-0.001c-0.02,0-0.042,0-0.062-0.003
		c-0.132-0.009-0.24-0.02-0.293,0.135c-0.02,0.056-0.031,0.132-0.035,0.237C3.095,1.211,3.089,1.578,3.083,1.944
		c0,0.036,0,0.071-0.001,0.105C3.081,2.124,3.081,2.199,3.079,2.274C3.062,3.279,3.05,4.284,3.061,5.288c0,0.013,0,0.025,0,0.039
		C3.066,5.769,3.075,6.21,3.091,6.651c0.001,0.048,0.004,0.094,0.004,0.14c0.079,0.101,0.12,0.205,0.138,0.312
		c0.035,0.215-0.028,0.438-0.065,0.66c-0.028,0.161-0.033,0.297,0.044,0.33c0.02,0.011,0.047,0.013,0.082,0.003
		c0.039-0.007,0.084-0.027,0.143-0.062c-0.224-0.318,0.05-0.614,0.045-0.932C3.447,5.418,3.46,3.732,3.468,2.046
		C3.472,1.525,3.429,0.999,3.521,0.48C3.523,0.479,3.523,0.479,3.523,0.478z M3.222,5.931V2.43h0.052v3.501L3.222,5.931L3.222,5.931
		z"/>
</g>
</svg>
