<?xml version="1.0" encoding="utf-8"?>
<!-- Generator: Adobe Illustrator 16.0.0, SVG Export Plug-In . SVG Version: 6.00 Build 0)  -->
<!DOCTYPE svg PUBLIC "-//W3C//DTD SVG 1.1//EN" "http://www.w3.org/Graphics/SVG/1.1/DTD/svg11.dtd">
<svg version="1.1" id="katman_1" xmlns="http://www.w3.org/2000/svg" xmlns:xlink="http://www.w3.org/1999/xlink" x="0px" y="0px"
	 width="40px" height="40px" viewBox="0 0 40 40" enable-background="new 0 0 40 40" xml:space="preserve">
<path fill="#DAE2E7" d="M20,0.35C9.15,0.35,0.35,9.15,0.35,20c0,10.85,8.8,19.65,19.65,19.65c10.85,0,19.65-8.801,19.65-19.65
	C39.65,9.15,30.85,0.35,20,0.35z M20,36.5c-9.11,0-16.5-7.391-16.5-16.5c0-9.11,7.39-16.5,16.5-16.5c9.109,0,16.5,7.39,16.5,16.5
	C36.5,29.109,29.109,36.5,20,36.5z"/>
<path fill="#33B3A0" d="M25.43,19.69l-5.41,9.5l-5.45-9.569l3.81,1.09V7.09c0.59-0.2,1.64-0.38,3.24-0.03v13.67L25.43,19.69z"/>
</svg>
