<?xml version="1.0" encoding="utf-8"?>
<!-- Generator: Adobe Illustrator 21.0.0, SVG Export Plug-In . SVG Version: 6.00 Build 0)  -->
<svg version="1.1" id="katman_1" xmlns="http://www.w3.org/2000/svg" xmlns:xlink="http://www.w3.org/1999/xlink" x="0px" y="0px"
	 width="50px" height="50px" viewBox="0 0 50 50" style="enable-background:new 0 0 50 50;" xml:space="preserve">
<style type="text/css">
	.st0{fill:#FFFFFF;}
	.st1{fill:#505B78;}
	.st2{opacity:0.17;fill:#505B78;enable-background:new    ;}
	.st3{fill:#66CD54;}
</style>
<path class="st0" d="M22.2,18.1L19,17.5l-3.1,0.9L14.6,20l-0.9,1.2l-1.6,0.6l-1.4,1.4l-0.9,1.6l-0.4,1.7l0.9,2.3l1.3,1.2l2.4,0.9
	h4.5h18.1l2.2-1.4l1.1-1.9v-2.1l-0.8-2.3L38,21.8l-0.7-1.3l-0.8-2.1l-1-2l-1.4-1.6c0,0-2.9-1.2-3-1S28.4,14,28.4,14l-2.6,0.6
	l-1.6,1.7L22.2,18.1z"/>
<g>
	<g>
		<g>
			<g>
				<path class="st1" d="M41.4,26.7c0,0.2-0.1,0.3-0.1,0.5c-0.1,0.4-0.3,0.8-0.4,1.1c-0.8,1.6-2.2,2.7-4,3c-0.4,0.1-0.8,0.1-1.3,0.1
					H33c0.1-0.1,0.3-0.3,0.4-0.5c0.2-0.4,0.3-0.7,0.4-1.1h0.7l0,0h1.2c0.4,0,0.7,0,1-0.1c1.7-0.4,2.9-1.6,3.2-3.4
					c0.3-1.6-0.5-3.3-1.9-4.2c-0.5-0.1-0.9-0.5-1-1.1c-0.5-3.7-3.7-6.5-7.5-6.5c-0.8,0-1.5,0.1-2.3,0.4c-1.8,0.6-3.2,1.6-4.3,3.3
					l-0.1,0.2c0,0,0,0,0,0.1c-0.1,0.1-0.2,0.2-0.4,0.2h-0.1l0,0l-0.7-0.3c-0.8-0.3-1.6-0.5-2.4-0.5c-2.1,0-4,1.2-5,3.2
					c-0.2,0.4-0.6,0.7-1,0.8c-2,0.6-3.3,2.5-3,4.5c0.3,2.2,2,3.6,4.2,3.6h2.3c0.1,0.5,0.3,1.1,0.7,1.6h-3c-3.1,0-5.4-2-5.8-4.9
					c-0.4-2.8,1.4-5.5,4.2-6.3c1.4-2.5,3.8-4,6.5-4c0.9,0,1.9,0.2,2.8,0.5c1.2-1.7,2.8-2.8,4.8-3.4c0.9-0.3,1.8-0.4,2.7-0.4
					c1.2,0,2.4,0.2,3.4,0.7l0,0c0.4,0.1,0.7,0.3,1.1,0.5c0.2,0.1,0.3,0.2,0.5,0.3c0.4,0.2,0.7,0.5,1,0.8c1.6,1.4,2.8,3.4,3.1,5.7
					c0,0,0.1,0,0.1,0.1C40.7,22.2,41.8,24.5,41.4,26.7z"/>
			</g>
		</g>
	</g>
</g>
<path class="st2" d="M16.3,29.2c-1.4-0.3-5.1-1.4-5.4-5c0,0-0.8,5,2.3,5.1L16.3,29.2C16.3,29.3,16.3,29.2,16.3,29.2z"/>
<g>
	<g>
		<g>
			<path class="st3" d="M23.6,29.1c-0.7,1.2-1.9,1.9-3.2,1.9c-1.3,0-2.5-0.7-3.2-1.9c-0.4-0.8-0.6-1.6-0.5-2.4l0,0
				c0.1-1.5,1.6-3.8,2.6-5.3c0.7-1.1,1-1.3,1-1.4l0,0l0,0l0,0l0,0l0,0h0.1h0.1l0,0l0,0l0,0l0,0l0,0c0,0,0.3,0.2,1,1.4
				c1,1.5,2.4,3.8,2.6,5.3l0,0C24.1,27.5,24,28.4,23.6,29.1z"/>
			<path class="st3" d="M20.1,18.9L20.1,18.9L20.1,18.9z"/>
			<path class="st3" d="M20.3,18.9L20.3,18.9L20.3,18.9z"/>
		</g>
	</g>
</g>
<g>
	<g>
		<g>
			<path class="st3" d="M32.4,31.1c-0.7,1.2-1.9,1.9-3.2,1.9c-1.3,0-2.5-0.7-3.2-1.9c-0.4-0.8-0.6-1.6-0.5-2.4l0,0
				c0.1-1.5,1.6-3.8,2.6-5.3c0.7-1.1,1-1.3,1-1.4l0,0l0,0l0,0l0,0l0,0h0.1h0.1l0,0l0,0l0,0l0,0l0,0c0,0,0.3,0.2,1,1.4
				c1,1.5,2.4,3.8,2.6,5.3l0,0C32.9,29.5,32.8,30.4,32.4,31.1z"/>
			<path class="st3" d="M28.9,20.9L28.9,20.9L28.9,20.9z"/>
			<path class="st3" d="M29.1,20.9L29.1,20.9L29.1,20.9z"/>
		</g>
	</g>
</g>
<g>
	<g>
		<g>
			<path class="st3" d="M27,40.2c-0.7,1.2-1.9,1.9-3.2,1.9c-1.3,0-2.5-0.7-3.2-1.9c-0.4-0.8-0.6-1.6-0.5-2.4l0,0
				c0.1-1.5,1.6-3.8,2.6-5.3c0.7-1.1,1-1.3,1-1.4l0,0l0,0l0,0l0,0l0,0h0.1h0.1l0,0l0,0l0,0l0,0l0,0c0,0,0.3,0.2,1,1.4
				c1,1.5,2.4,3.8,2.6,5.3l0,0C27.5,38.5,27.4,39.4,27,40.2z"/>
			<path class="st3" d="M23.5,29.9L23.5,29.9L23.5,29.9z"/>
			<path class="st3" d="M23.7,29.9L23.7,29.9L23.7,29.9z"/>
		</g>
	</g>
</g>
</svg>
